<svg width="249" height="249" viewBox="0 0 249 249" fill="none" xmlns="http://www.w3.org/2000/svg">
<circle cx="124.5" cy="124.5" r="124.5" fill="#402585"/>
<path d="M192.397 54.7745C194.659 56.4501 196 59.131 196 61.9516V82.0589V155.785C196 168.129 183.99 178.127 169.188 178.127C154.385 178.127 142.375 168.129 142.375 155.785C142.375 143.442 154.385 133.444 169.188 133.444C172.316 133.444 175.332 133.891 178.125 134.729V94.0674L106.625 115.515V173.659C106.625 186.002 94.6152 196 79.8125 196C65.0098 196 53 186.002 53 173.659C53 161.315 65.0098 151.317 79.8125 151.317C82.9406 151.317 85.957 151.764 88.75 152.602V108.869V88.7613C88.75 84.8236 91.3475 81.3328 95.118 80.1878L184.493 53.3781C187.202 52.5683 190.135 53.0709 192.397 54.7745Z" fill="white"/>
<g clip-path="url(#clip0_434_54)">
<path d="M135 156C135 145.391 139.214 135.217 146.716 127.716C154.217 120.214 164.391 116 175 116C185.609 116 195.783 120.214 203.284 127.716C210.786 135.217 215 145.391 215 156C215 166.609 210.786 176.783 203.284 184.284C195.783 191.786 185.609 196 175 196C164.391 196 154.217 191.786 146.716 184.284C139.214 176.783 135 166.609 135 156ZM164.422 138.984C163.234 139.641 162.5 140.906 162.5 142.25V169.75C162.5 171.109 163.234 172.359 164.422 173.016C165.609 173.672 167.047 173.656 168.219 172.938L190.719 159.188C191.828 158.5 192.516 157.297 192.516 155.984C192.516 154.672 191.828 153.469 190.719 152.781L168.219 139.031C167.062 138.328 165.609 138.297 164.422 138.953V138.984Z" fill="#402585"/>
</g>
<defs>
<clipPath id="clip0_434_54">
<rect width="80" height="80" fill="white" transform="translate(135 116)"/>
</clipPath>
</defs>
</svg>
